<svg width="300" height="300" viewBox="0 0 300 300" fill="none" xmlns="http://www.w3.org/2000/svg">
<path d="M287.12 145.42C287.12 221.32 225.59 282.85 149.69 282.85V261.44C213.66 261.44 265.7 209.39 265.7 145.42C265.7 81.45 213.66 29.41 149.69 29.41V8C225.59 8 287.12 69.52 287.12 145.42Z" fill="#C4C4C4"/>
<path d="M13.0002 145.42C13.0002 221.32 74.5302 282.85 150.43 282.85V261.44C86.4602 261.44 34.4202 209.39 34.4202 145.42C34.4202 81.45 86.4602 29.41 150.43 29.41V8C74.5302 8 13.0002 69.52 13.0002 145.42Z" fill="#C4C4C4"/>
<path d="M230 145.495C230 218.675 196.421 278 155 278V257.357C189.911 257.357 207.441 207.173 207.441 145.495C207.441 83.8177 189.911 33.6427 155 33.6427V13C196.421 13 230 72.3153 230 145.495Z" fill="#C4C4C4"/>
<path d="M70 145.495C70 218.675 103.579 278 145 278V257.357C110.089 257.357 92.5591 207.173 92.5591 145.495C92.5591 83.8177 110.089 33.6427 145 33.6427V13C103.579 13 70 72.3153 70 145.495Z" fill="#C4C4C4"/>
<rect x="141" y="23" width="19" height="245" fill="#C4C4C4"/>
<rect x="273" y="136" width="19" height="245" transform="rotate(90 273 136)" fill="#C4C4C4"/>
</svg>
