<svg width="282" height="284" viewBox="0 0 282 284" fill="none" xmlns="http://www.w3.org/2000/svg">
<path d="M278.12 137.42C278.12 213.32 216.59 274.85 140.69 274.85V253.44C204.66 253.44 256.7 201.39 256.7 137.42C256.7 73.45 204.66 21.41 140.69 21.41V0C216.59 0 278.12 61.52 278.12 137.42Z" fill="#C4C4C4"/>
<path d="M4.00018 137.42C4.00018 213.32 65.5302 274.85 141.43 274.85V253.44C77.4602 253.44 25.4202 201.39 25.4202 137.42C25.4202 73.45 77.4602 21.41 141.43 21.41V0C65.5302 0 4.00018 61.52 4.00018 137.42Z" fill="#C4C4C4"/>
<path d="M221 137.495C221 210.675 187.421 270 146 270V249.357C180.911 249.357 198.441 199.173 198.441 137.495C198.441 75.8177 180.911 25.6427 146 25.6427V5C187.421 5 221 64.3153 221 137.495Z" fill="#C4C4C4"/>
<path d="M61 137.495C61 210.675 94.5789 270 136 270V249.357C101.089 249.357 83.5591 199.173 83.5591 137.495C83.5591 75.8177 101.089 25.6427 136 25.6427V5C94.5789 5 61 64.3153 61 137.495Z" fill="#C4C4C4"/>
<rect x="132" y="15" width="19" height="245" fill="#C4C4C4"/>
<rect x="264" y="128" width="19" height="245" transform="rotate(90 264 128)" fill="#C4C4C4"/>
</svg>
