<svg width="282" height="284" viewBox="0 0 282 284" fill="none" xmlns="http://www.w3.org/2000/svg">
<g clip-path="url(#clip0_40_3)">
<path d="M215.97 169.33C215.76 171.93 211.54 199.13 177.75 195.45C143.96 191.76 94.6899 142.91 84.9399 108.47C84.9399 108.47 79.0899 83.1299 99.6699 70.1299H114.4C114.4 70.1299 127.17 95.6899 128.26 98.2899C129.34 100.89 130.42 109.77 118.51 118.65C118.51 118.65 129.72 150.2 167.46 164.13C167.46 164.13 179.15 151.79 179.8 150.92C180.45 150.05 183.79 145.69 188.9 148.32C188.9 148.32 207.67 159.1 212.73 161.97C217.24 164.53 216.19 166.73 215.97 169.33Z" fill="#C4C4C4"/>
<path d="M143.69 0C67.79 0 6.26 61.53 6.26 137.42C6.26 164.28 13.97 189.34 27.29 210.51L0 283.38L79.27 258.84C98.48 269.06 120.41 274.85 143.69 274.85C219.59 274.85 281.12 213.32 281.12 137.42C281.12 61.52 219.59 0 143.69 0ZM143.69 253.44C124.73 253.44 105.93 248.77 89.32 239.94L81.45 235.75L35.36 250.02L51.06 208.09L45.42 199.11C33.81 180.67 27.68 159.34 27.68 137.42C27.68 73.45 79.72 21.41 143.69 21.41C207.66 21.41 259.7 73.45 259.7 137.42C259.7 201.39 207.66 253.44 143.69 253.44Z" fill="#C4C4C4"/>
<path d="M215.97 169.33C215.76 171.93 211.54 199.13 177.75 195.45C143.96 191.76 94.6899 142.91 84.9399 108.47C84.9399 108.47 79.0899 83.1299 99.6699 70.1299H114.4C114.4 70.1299 127.17 95.6899 128.26 98.2899C129.34 100.89 130.42 109.77 118.51 118.65C118.51 118.65 129.72 150.2 167.46 164.13C167.46 164.13 179.15 151.79 179.8 150.92C180.45 150.05 183.79 145.69 188.9 148.32C188.9 148.32 207.67 159.1 212.73 161.97C217.24 164.53 216.19 166.73 215.97 169.33Z" fill="#C4C4C4"/>
<path d="M215.97 169.33C215.76 171.93 211.54 199.13 177.75 195.45C143.96 191.76 94.6899 142.91 84.9399 108.47C84.9399 108.47 79.0899 83.1299 99.6699 70.1299H114.4C114.4 70.1299 127.17 95.6899 128.26 98.2899C129.34 100.89 130.42 109.77 118.51 118.65C118.51 118.65 129.72 150.2 167.46 164.13C167.46 164.13 179.15 151.79 179.8 150.92C180.45 150.05 183.79 145.69 188.9 148.32C188.9 148.32 207.67 159.1 212.73 161.97C217.24 164.53 216.19 166.73 215.97 169.33Z" fill="#C4C4C4"/>
</g>
<defs>
<clipPath id="clip0_40_3">
<rect width="281.12" height="283.38" fill="white"/>
</clipPath>
</defs>
</svg>
