<svg width="300" height="300" viewBox="0 0 300 300" fill="none" xmlns="http://www.w3.org/2000/svg">
<path d="M224.97 177.33C224.76 179.93 220.54 207.13 186.75 203.45C152.96 199.76 103.69 150.91 93.9399 116.47C93.9399 116.47 88.0899 91.1299 108.67 78.1299H123.4C123.4 78.1299 136.17 103.69 137.26 106.29C138.34 108.89 139.42 117.77 127.51 126.65C127.51 126.65 138.72 158.2 176.46 172.13C176.46 172.13 188.15 159.79 188.8 158.92C189.45 158.05 192.79 153.69 197.9 156.32C197.9 156.32 216.67 167.1 221.73 169.97C226.24 172.53 225.19 174.73 224.97 177.33Z" fill="#C4C4C4"/>
<path d="M152.69 8C76.79 8 15.26 69.53 15.26 145.42C15.26 172.28 22.97 197.34 36.29 218.51L9 291.38L88.27 266.84C107.48 277.06 129.41 282.85 152.69 282.85C228.59 282.85 290.12 221.32 290.12 145.42C290.12 69.52 228.59 8 152.69 8ZM152.69 261.44C133.73 261.44 114.93 256.77 98.32 247.94L90.45 243.75L44.36 258.02L60.06 216.09L54.42 207.11C42.81 188.67 36.68 167.34 36.68 145.42C36.68 81.45 88.72 29.41 152.69 29.41C216.66 29.41 268.7 81.45 268.7 145.42C268.7 209.39 216.66 261.44 152.69 261.44Z" fill="#C4C4C4"/>
<path d="M224.97 177.33C224.76 179.93 220.54 207.13 186.75 203.45C152.96 199.76 103.69 150.91 93.9399 116.47C93.9399 116.47 88.0899 91.1299 108.67 78.1299H123.4C123.4 78.1299 136.17 103.69 137.26 106.29C138.34 108.89 139.42 117.77 127.51 126.65C127.51 126.65 138.72 158.2 176.46 172.13C176.46 172.13 188.15 159.79 188.8 158.92C189.45 158.05 192.79 153.69 197.9 156.32C197.9 156.32 216.67 167.1 221.73 169.97C226.24 172.53 225.19 174.73 224.97 177.33Z" fill="#C4C4C4"/>
<path d="M224.97 177.33C224.76 179.93 220.54 207.13 186.75 203.45C152.96 199.76 103.69 150.91 93.9399 116.47C93.9399 116.47 88.0899 91.1299 108.67 78.1299H123.4C123.4 78.1299 136.17 103.69 137.26 106.29C138.34 108.89 139.42 117.77 127.51 126.65C127.51 126.65 138.72 158.2 176.46 172.13C176.46 172.13 188.15 159.79 188.8 158.92C189.45 158.05 192.79 153.69 197.9 156.32C197.9 156.32 216.67 167.1 221.73 169.97C226.24 172.53 225.19 174.73 224.97 177.33Z" fill="#C4C4C4"/>
</svg>
